<?xml version="1.0" encoding="utf-8"?>
<!-- Generator: Adobe Illustrator 16.0.0, SVG Export Plug-In . SVG Version: 6.00 Build 0)  -->
<!DOCTYPE svg PUBLIC "-//W3C//DTD SVG 1.1//EN" "http://www.w3.org/Graphics/SVG/1.1/DTD/svg11.dtd">
<svg version="1.1" id="Layer_1" xmlns="http://www.w3.org/2000/svg" xmlns:xlink="http://www.w3.org/1999/xlink" x="0px" y="0px"
	 width="35px" height="35px" viewBox="0 0 35 35" enable-background="new 0 0 35 35" xml:space="preserve">
<path fill="#34AADC" d="M24.721,9.902c-0.482,0-1,0.135-1.551,0.406s-0.826,0.619-0.826,1.044v2.291H26.2V17.5h-3.856v10.644h-3.886
	V17.5h-1.914v-3.857h1.914V11.7c0-1.585,0.377-2.876,1.13-3.872c0.754-0.995,1.895-1.493,3.423-1.493
	c1.934,0,3.315,0.145,4.147,0.434l-0.58,3.422C25.939,9.998,25.319,9.902,24.721,9.902z M31.246,3.754
	C30.742,3.252,30.144,3,29.448,3H5.552C4.856,3,4.257,3.252,3.754,3.754C3.251,4.257,3,4.856,3,5.552v23.896
	c0,0.695,0.251,1.294,0.754,1.798C4.257,31.749,4.856,32,5.552,32h23.896c0.695,0,1.294-0.251,1.798-0.754
	C31.747,30.744,32,30.144,32,29.448V5.552C32,4.856,31.747,4.257,31.246,3.754z"/>
</svg>
