<?xml version="1.0" encoding="utf-8"?>
<!-- Generator: Adobe Illustrator 16.0.0, SVG Export Plug-In . SVG Version: 6.00 Build 0)  -->
<!DOCTYPE svg PUBLIC "-//W3C//DTD SVG 1.1//EN" "http://www.w3.org/Graphics/SVG/1.1/DTD/svg11.dtd">
<svg version="1.1" id="Layer_1" xmlns="http://www.w3.org/2000/svg" xmlns:xlink="http://www.w3.org/1999/xlink" x="0px" y="0px"
	 width="35px" height="35px" viewBox="0 0 35 35" enable-background="new 0 0 35 35" xml:space="preserve">
<path fill="#34AADC" d="M5.552,3C4.856,3,4.257,3.252,3.754,3.754C3.251,4.257,3,4.856,3,5.552v23.896
	c0,0.695,0.251,1.294,0.754,1.798C4.257,31.749,4.856,32,5.552,32h23.896c0.695,0,1.294-0.251,1.798-0.754
	C31.747,30.744,32,30.144,32,29.448V5.552c0-0.696-0.253-1.295-0.754-1.798C30.744,3.251,30.144,3,29.448,3H5.552z M26.432,13.527
	c0,1.759-0.387,3.538-1.16,5.335c-1.062,2.436-2.647,4.335-4.755,5.698c-2.107,1.364-4.496,2.046-7.164,2.046
	c-2.552,0-4.901-0.687-7.047-2.06c0.464,0.039,0.822,0.059,1.073,0.059c2.126,0,4.031-0.658,5.713-1.973
	c-0.967-0.019-1.847-0.323-2.639-0.915C9.66,21.13,9.11,20.371,8.8,19.443c0.29,0.058,0.581,0.087,0.87,0.087
	c0.406,0,0.812-0.059,1.218-0.174c-1.083-0.214-1.972-0.745-2.668-1.596c-0.696-0.851-1.034-1.817-1.015-2.9v-0.058
	c0.657,0.367,1.353,0.561,2.088,0.58c-1.373-0.909-2.059-2.185-2.059-3.828c0-0.851,0.203-1.624,0.609-2.32
	c1.179,1.431,2.595,2.566,4.248,3.407c1.653,0.841,3.398,1.31,5.234,1.406c-0.077-0.309-0.116-0.657-0.116-1.044
	c0-1.276,0.449-2.364,1.348-3.263c0.899-0.899,1.986-1.349,3.264-1.349c1.314,0,2.427,0.484,3.335,1.45
	c1.023-0.193,2.001-0.561,2.929-1.102c-0.367,1.122-1.044,1.962-2.029,2.523c0.869-0.078,1.749-0.319,2.639-0.725
	c-0.618,0.948-1.383,1.741-2.291,2.377C26.423,13.054,26.432,13.256,26.432,13.527z"/>
</svg>
