<?xml version="1.0" encoding="utf-8"?>
<!-- Generator: Adobe Illustrator 16.0.0, SVG Export Plug-In . SVG Version: 6.00 Build 0)  -->
<!DOCTYPE svg PUBLIC "-//W3C//DTD SVG 1.0//EN" "http://www.w3.org/TR/2001/REC-SVG-20010904/DTD/svg10.dtd">
<svg version="1.0" id="Layer_1" xmlns="http://www.w3.org/2000/svg" xmlns:xlink="http://www.w3.org/1999/xlink" x="0px" y="0px"
	 width="35px" height="35px" viewBox="0 0 35 35" enable-background="new 0 0 35 35" xml:space="preserve">
<g>
	<defs>
		<rect id="SVGID_1_" x="1.5" y="1.5" width="32" height="32"/>
	</defs>
	<defs>
		<path id="SVGID_2_" d="M17.5,33.5c8.837,0,16-7.163,16-16c0-8.836-7.163-16-16-16c-8.836,0-16,7.164-16,16
			C1.5,26.337,8.664,33.5,17.5,33.5L17.5,33.5z M17.5,33.5"/>
	</defs>
	<defs>
		<rect id="SVGID_3_" x="1.5" y="-758.5" width="612" height="792"/>
	</defs>
	<clipPath id="SVGID_4_">
		<use xlink:href="#SVGID_1_"  overflow="visible"/>
	</clipPath>
	<clipPath id="SVGID_5_" clip-path="url(#SVGID_4_)">
		<use xlink:href="#SVGID_2_"  overflow="visible"/>
	</clipPath>
	<clipPath id="SVGID_6_" clip-path="url(#SVGID_5_)">
		<use xlink:href="#SVGID_3_"  overflow="visible"/>
	</clipPath>
	<path clip-path="url(#SVGID_6_)" fill="none" stroke="#868686" stroke-width="8" stroke-miterlimit="10" d="M17.5,33.5
		c8.837,0,16-7.163,16-16c0-8.836-7.163-16-16-16c-8.836,0-16,7.164-16,16C1.5,26.337,8.664,33.5,17.5,33.5L17.5,33.5z M17.5,33.5"
		/>
</g>
<g>
	<defs>
		<rect id="SVGID_7_" x="1.5" y="1.5" width="32" height="32"/>
	</defs>
	<defs>
		<path id="SVGID_8_" d="M15.5,9.5v10h4v-10H15.5L15.5,9.5z M15.5,9.5"/>
	</defs>
	<defs>
		<rect id="SVGID_9_" x="1.5" y="-758.5" width="612" height="792"/>
	</defs>
	<clipPath id="SVGID_10_">
		<use xlink:href="#SVGID_7_"  overflow="visible"/>
	</clipPath>
	<clipPath id="SVGID_11_" clip-path="url(#SVGID_10_)">
		<use xlink:href="#SVGID_8_"  overflow="visible"/>
	</clipPath>
	<clipPath id="SVGID_12_" clip-path="url(#SVGID_11_)">
		<use xlink:href="#SVGID_9_"  overflow="visible"/>
	</clipPath>
	<path clip-path="url(#SVGID_12_)" fill-rule="evenodd" clip-rule="evenodd" fill="#868686" d="M10.5,4.5h14v20h-14V4.5z M10.5,4.5"
		/>
</g>
<g>
	<defs>
		<rect id="SVGID_13_" x="1.5" y="1.5" width="32" height="32"/>
	</defs>
	<defs>
		<path id="SVGID_14_" d="M15.964,19.793l4.243,4.242l2.828-2.828l-4.242-4.243L15.964,19.793L15.964,19.793z M15.964,19.793"/>
	</defs>
	<defs>
		<rect id="SVGID_15_" x="1.5" y="-758.5" width="612" height="792"/>
	</defs>
	<clipPath id="SVGID_16_">
		<use xlink:href="#SVGID_13_"  overflow="visible"/>
	</clipPath>
	<clipPath id="SVGID_17_" clip-path="url(#SVGID_16_)">
		<use xlink:href="#SVGID_14_"  overflow="visible"/>
	</clipPath>
	<clipPath id="SVGID_18_" clip-path="url(#SVGID_17_)">
		<use xlink:href="#SVGID_15_"  overflow="visible"/>
	</clipPath>
	<path clip-path="url(#SVGID_18_)" fill-rule="evenodd" clip-rule="evenodd" fill="#868686" d="M10.964,11.964h17.071v17.071H10.964
		V11.964z M10.964,11.964"/>
</g>
</svg>
