<?xml version="1.0" encoding="utf-8"?>
<!-- Generator: Adobe Illustrator 16.0.0, SVG Export Plug-In . SVG Version: 6.00 Build 0)  -->
<!DOCTYPE svg PUBLIC "-//W3C//DTD SVG 1.1//EN" "http://www.w3.org/Graphics/SVG/1.1/DTD/svg11.dtd">
<svg version="1.1" id="Layer_1" xmlns="http://www.w3.org/2000/svg" xmlns:xlink="http://www.w3.org/1999/xlink" x="0px" y="0px"
	 width="35px" height="35px" viewBox="0 0 35 35" enable-background="new 0 0 35 35" xml:space="preserve">
<path fill="#34AADC" d="M18.929,23.696c2.154,0,3.986-0.756,5.496-2.267l5.277-5.217C31.233,14.722,32,12.901,32,10.748
	c0-2.133-0.761-3.953-2.282-5.466c-1.521-1.51-3.348-2.266-5.479-2.266c-1.967,0-3.79,0.756-5.466,2.266l-4.377,3.945h5.713
	c0.331-0.414,0.983-0.896,1.956-1.445c0.974-0.549,1.696-0.822,2.174-0.822c1.034,0,1.925,0.372,2.671,1.119
	c0.745,0.746,1.118,1.637,1.118,2.671c0,1.076-0.373,1.966-1.118,2.671l-5.279,5.216c-0.682,0.683-1.531,1.023-2.545,1.023
	c-0.912,0-2.132-0.373-3.664-1.119l-2.051,3.105C15.212,23.011,17.067,23.696,18.929,23.696z M5.282,29.718
	c1.522,1.511,3.348,2.266,5.48,2.266c1.966,0,3.789-0.755,5.465-2.266l4.377-3.945h-5.713c-0.353,0.415-1.01,0.892-1.971,1.43
	c-0.963,0.538-1.682,0.809-2.158,0.809c-1.035,0-1.925-0.366-2.671-1.102c-0.745-0.736-1.118-1.62-1.118-2.654
	c0-1.076,0.373-1.967,1.118-2.672l5.279-5.217c0.704-0.702,1.552-1.055,2.545-1.055c0.953,0,2.173,0.384,3.664,1.15l2.051-3.105
	c-1.864-1.387-3.716-2.081-5.559-2.081c-2.11,0-3.942,0.756-5.496,2.268l-5.277,5.216C3.766,20.248,3,22.08,3,24.253
	C3,26.388,3.761,28.207,5.282,29.718z"/>
</svg>
